<svg xmlns="http://www.w3.org/2000/svg" width="20.056" height="20.056" viewBox="0 0 20.056 20.056">
  <g id="Group_19492" data-name="Group 19492" transform="translate(0)">
    <path id="Path_33224" data-name="Path 33224" d="M0,0H20.056V20.056H0Z" transform="translate(0)" fill="none"/>
    <path id="Path_33225" data-name="Path 33225" d="M6.178,6.178V2.836A.836.836,0,0,1,7.014,2H17.877a.836.836,0,0,1,.836.836V13.7a.836.836,0,0,1-.836.836H14.535v3.337a.841.841,0,0,1-.842.842H2.842A.841.841,0,0,1,2,17.872L2,7.02a.841.841,0,0,1,.842-.842Zm1.671,0h5.844a.841.841,0,0,1,.842.842v5.844h2.507V3.671H7.85ZM12.863,7.85H3.674l0,9.192h9.192ZM7.434,15.37,4.479,12.416l1.182-1.182,1.773,1.773,3.545-3.546,1.182,1.182Z" transform="translate(-0.329 -0.329)" fill="#5a5a5a"/>
  </g>
</svg>
