<svg xmlns="http://www.w3.org/2000/svg" width="20.737" height="20.737" viewBox="0 0 20.737 20.737">
  <g id="Group_19491" data-name="Group 19491" transform="translate(0)">
    <path id="Path_33222" data-name="Path 33222" d="M0,0H20.737V20.737H0Z" transform="translate(0)" fill="none"/>
    <path id="Path_33223" data-name="Path 33223" d="M12.641,12.45v1.806a5.184,5.184,0,0,0-6.912,4.889H4a6.912,6.912,0,0,1,8.641-6.695Zm-1.728-1.082A5.184,5.184,0,1,1,16.1,6.184,5.183,5.183,0,0,1,10.912,11.369Zm0-1.728A3.456,3.456,0,1,0,7.456,6.184,3.455,3.455,0,0,0,10.912,9.641ZM16.6,14.825l-1.58-1.579,1.223-1.223,3.665,3.666-3.665,3.666-1.223-1.223,1.58-1.579H13.5V14.825Z" transform="translate(-0.543 -0.136)" fill="#5a5a5a"/>
  </g>
</svg>
