<svg xmlns="http://www.w3.org/2000/svg" width="24" height="24" viewBox="0 0 24 24">
  <g id="Group_14561" data-name="Group 14561" transform="translate(12426 -3556)">
    <rect id="Rectangle_17950" data-name="Rectangle 17950" width="24" height="24" transform="translate(-12426 3556)" fill="rgba(255,255,255,0)"/>
    <g id="information-icon" transform="translate(-12422 3560)">
      <path id="Path_34297" data-name="Path 34297" d="M7.968,1.2c-.24,0-.472.01-.694.032a6.749,6.749,0,0,0-.671.1,6.672,6.672,0,0,0-.648.163,6.471,6.471,0,0,0-.61.223l-.013.006h0c-.211.091-.412.188-.606.292s-.381.218-.559.337-.353.249-.517.385-.324.28-.477.435l-.005.005q-.23.23-.432.475t-.385.518c-.119.176-.231.363-.336.558s-.2.4-.293.606l-.006.014h0l-.009.018a6.309,6.309,0,0,0-.217.6,6.489,6.489,0,0,0-.161.639,6.7,6.7,0,0,0-.1.671c-.022.223-.032.454-.032.694s.01.472.032.694a6.752,6.752,0,0,0,.1.671,6.676,6.676,0,0,0,.165.649c.064.2.136.406.22.6a.259.259,0,0,1,.013.027q.134.311.289.6c.105.195.218.381.336.558a6.334,6.334,0,0,0,.386.519q.2.241.423.466a.221.221,0,0,1,.025.025c.15.15.306.291.466.423s.339.265.517.385.363.231.558.336.4.2.606.293l.027.013a6.339,6.339,0,0,0,.606.219,6.461,6.461,0,0,0,.638.161,6.692,6.692,0,0,0,.671.1c.223.022.454.032.694.032s.472-.01.694-.032a6.748,6.748,0,0,0,.671-.1,6.672,6.672,0,0,0,.648-.165,6.281,6.281,0,0,0,.611-.224l.012-.005h0c.211-.091.412-.188.606-.292s.381-.218.559-.337.353-.249.517-.385.318-.275.469-.427c.008-.008.014-.016.023-.023.149-.149.289-.3.422-.464s.266-.339.386-.519.231-.363.336-.558.2-.394.293-.606l.013-.029a6.293,6.293,0,0,0,.219-.6,6.489,6.489,0,0,0,.161-.639,6.7,6.7,0,0,0,.1-.671c.022-.223.032-.454.032-.694s-.01-.472-.032-.694a6.752,6.752,0,0,0-.1-.671,6.677,6.677,0,0,0-.165-.649,6.283,6.283,0,0,0-.224-.611l-.005-.012h0c-.091-.211-.188-.412-.292-.606s-.218-.381-.336-.558-.249-.353-.385-.518-.275-.318-.425-.468a.2.2,0,0,1-.023-.023c-.15-.15-.3-.291-.466-.423s-.339-.265-.517-.385-.363-.231-.558-.336-.394-.2-.606-.292l-.025-.012a6.4,6.4,0,0,0-1.246-.381,6.693,6.693,0,0,0-.671-.1c-.224-.018-.457-.029-.7-.029Zm.246,2.846a.842.842,0,0,1,.912.914.987.987,0,0,1-.416.774,1.509,1.509,0,0,1-.975.34.95.95,0,0,1-.669-.233.8.8,0,0,1-.254-.616,1.061,1.061,0,0,1,.414-.83,1.474,1.474,0,0,1,.99-.349ZM9.8,11.9H6.138V11.28h.687V7.517H6.138v-.49H7.849a5.182,5.182,0,0,0,1.277-.158V11.28H9.8V11.9ZM6.371.156A7.9,7.9,0,0,1,7.159.04a8.164,8.164,0,0,1,1.619,0,7.9,7.9,0,0,1,.789.115,7.664,7.664,0,0,1,.755.192,7.574,7.574,0,0,1,.724.265l.025.009h0l.008,0c.24.1.473.217.7.339s.441.253.658.4.416.294.613.457a7.285,7.285,0,0,1,.563.512q.268.269.512.563c.162.2.314.4.457.614s.274.431.4.656h0c.122.226.236.459.338.7l.008.019a7.6,7.6,0,0,1,.266.726,7.413,7.413,0,0,1,.195.764,7.9,7.9,0,0,1,.115.789q.039.407.039.809a8.091,8.091,0,0,1-.04.809,7.9,7.9,0,0,1-.115.789,7.667,7.667,0,0,1-.192.755c-.075.245-.165.488-.266.729l-.005.012h0l-.006.014c-.1.24-.217.473-.339.7s-.253.441-.4.658-.294.416-.457.614a7.533,7.533,0,0,1-.512.563q-.268.269-.564.512t-.612.455q-.317.212-.656.4c-.231.125-.463.239-.7.34l-.021.008a7.6,7.6,0,0,1-.726.266,7.471,7.471,0,0,1-.763.195,7.9,7.9,0,0,1-.789.115q-.407.039-.809.039T7.158,15.9a7.9,7.9,0,0,1-.789-.115,7.668,7.668,0,0,1-1.482-.458l-.026-.01h0c-.24-.1-.473-.217-.7-.339s-.441-.253-.658-.4-.416-.294-.612-.455-.385-.333-.564-.512-.35-.367-.512-.563-.314-.4-.457-.614-.274-.431-.4-.656-.239-.464-.34-.7l-.008-.019A7.6,7.6,0,0,1,.35,10.33a7.5,7.5,0,0,1-.195-.764A7.9,7.9,0,0,1,.04,8.778a8.155,8.155,0,0,1,0-1.618,7.9,7.9,0,0,1,.115-.789,7.667,7.667,0,0,1,.192-.755q.113-.366.265-.725l.012-.03h0c.1-.24.217-.473.339-.7s.253-.441.4-.658.294-.416.457-.614a7.533,7.533,0,0,1,.512-.563q.268-.269.563-.512c.2-.162.4-.314.613-.457s.436-.278.658-.4L4.18.955C4.4.833,4.631.724,4.862.624L4.882.616A7.6,7.6,0,0,1,5.608.35,7.3,7.3,0,0,1,6.371.156Z" transform="translate(0 0)" fill="#fff"/>
    </g>
  </g>
</svg>
