<svg xmlns="http://www.w3.org/2000/svg" width="28.864" height="13.595" viewBox="0 0 28.864 13.595">
  <path id="Path_20" data-name="Path 20" d="M201.782,144.989v11.4c0,.9,0,2.763.7,3.547,1.532,1.725,2.119,1.274,3.132.043.955-1.166.874-1.077.286-2.448v-1.957c1.166-1.89,1.077-2.844-.719-4.137l.01-.012c1.462-1.2,1.732-.933.6-2.638l-.019-1.505c1.379-.008,1.3-1.155,1.3-2.292a6.653,6.653,0,0,0,4.151-6.132,6.8,6.8,0,0,0-13.595,0,6.657,6.657,0,0,0,4.146,6.131Zm2.652-10.791a1.947,1.947,0,1,1-1.989,1.951,1.969,1.969,0,0,1,1.989-1.951Z" transform="translate(161.074 -197.63) rotate(90)" fill="#bebebe" fill-rule="evenodd"/>
</svg>
