<svg xmlns="http://www.w3.org/2000/svg" width="18.595" height="16.669" viewBox="0 0 18.595 16.669">
  <path id="Path_26247" data-name="Path 26247" d="M3.188,7.206,4.3,16.66H16.788L17.9,7.206,14.433,9.517,10.544,4.073,6.655,9.517,3.188,7.206Zm-.6-2.477L6.221,7.15,9.84,2.083a.865.865,0,0,1,1.408,0L14.867,7.15,18.5,4.729a.865.865,0,0,1,1.338.821L18.415,17.626a.865.865,0,0,1-.859.763H3.531a.865.865,0,0,1-.859-.763L1.252,5.549A.865.865,0,0,1,2.59,4.729ZM10.544,13.2a1.729,1.729,0,1,1,1.729-1.729A1.729,1.729,0,0,1,10.544,13.2Z" transform="translate(-1.246 -1.721)" fill="#5a5a5a"/>
</svg>
