<svg id="Group_19408" data-name="Group 19408" xmlns="http://www.w3.org/2000/svg" width="24" height="24" viewBox="0 0 24 24">
  <path id="Path_33462" data-name="Path 33462" d="M0,0H24V24H0Z" fill="none"/>
  <path id="Path_33463" data-name="Path 33463" d="M6,19H3a1,1,0,0,1-1-1V8A1,1,0,0,1,3,7H6V3A1,1,0,0,1,7,2H17a1,1,0,0,1,1,1V7h3a1,1,0,0,1,1,1V18a1,1,0,0,1-1,1H18v2a1,1,0,0,1-1,1H7a1,1,0,0,1-1-1Zm0-2V16a1,1,0,0,1,1-1H17a1,1,0,0,1,1,1v1h2V9H4v8ZM8,4V7h8V4ZM8,17v3h8V17ZM5,10H8v2H5Z" fill="#acb0be"/>
</svg>
