<svg xmlns="http://www.w3.org/2000/svg" width="55.691" height="51.742" viewBox="0 0 55.691 51.742">
  <g id="Group_19593" data-name="Group 19593" transform="translate(0.5 0.491)">
    <path id="Path_30060" data-name="Path 30060" d="M-1515.321,2112.853a1,1,0,0,1-.282.736q-3.13,3.332-6.259,6.664c-1.272,1.355-2.552,2.7-3.808,4.069a1.471,1.471,0,0,1-1.522.47q-5.87-1.169-11.752-2.291a1.6,1.6,0,0,1-1.291-1.031c-1.118-2.595-2.27-5.177-3.407-7.764q-1.2-2.729-2.395-5.463a.965.965,0,0,1,.284-1.12c1.411-1.465,2.812-2.938,4.222-4.4,1.893-1.968,3.794-3.929,5.682-5.9a1.338,1.338,0,0,1,1.341-.4c4.265.866,8.528,1.74,12.8,2.582a1.939,1.939,0,0,1,1.638,1.346c1.256,3.356,2.588,6.687,3.891,10.027.241.62.484,1.24.718,1.864A1.465,1.465,0,0,1-1515.321,2112.853Zm-15.709-2.9c-.054-.137-.113-.3-.178-.453-.25-.6-.508-1.2-.752-1.807q-1.6-3.964-3.2-7.93c-.122-.3-.228-.257-.422-.053-.941.989-1.892,1.969-2.84,2.953-1.622,1.685-3.238,3.375-4.87,5.051a.665.665,0,0,0-.157.857c1.525,3.427,3.027,6.862,4.534,10.3.178.4.219.416.507.071.649-.776,1.286-1.561,1.934-2.339q2.623-3.148,5.25-6.293A.546.546,0,0,0-1531.031,2109.95Zm2.078,1.5c-.3-.058-.442.127-.594.31q-2.066,2.482-4.135,4.961-1.5,1.8-3,3.595c-.287.345-.269.4.152.485q4.522.887,9.043,1.773a.524.524,0,0,0,.564-.138c.409-.451.836-.887,1.252-1.333q3.358-3.594,6.715-7.189c.363-.387.373-.391-.174-.5q-3.2-.645-6.412-1.281Zm-4.078-12.554a2.178,2.178,0,0,0,.287.829q1.86,4.615,3.731,9.225a.654.654,0,0,0,.546.436c.785.144,1.565.308,2.348.465,2.495.5,4.991.99,7.483,1.5.416.085.39-.029.275-.321q-1.88-4.809-3.738-9.626a.607.607,0,0,0-.52-.4q-3.607-.727-7.212-1.464Z" transform="translate(1570.012 -2074.084)" fill="#fefeff" stroke="#fefeff" stroke-width="1"/>
    <path id="Path_30061" data-name="Path 30061" d="M-1785.823,2015.66c-.475.75-.917,1.433-1.346,2.124-1.472,2.373-2.934,4.752-4.414,7.121a.672.672,0,0,0-.014.778q2.649,4.776,5.277,9.561a9.731,9.731,0,0,1,.445.876,1.2,1.2,0,0,1-1.262,1.6c-2.159-.09-4.318-.168-6.477-.248q-4.438-.164-8.878-.322a1.235,1.235,0,0,1-1.109-.682q-1.7-3.072-3.41-6.142c-.722-1.3-1.433-2.6-2.182-3.884a1.415,1.415,0,0,1,.01-1.556q1.542-2.627,3.071-5.26c1.332-2.284,2.673-4.565,3.992-6.856.561-.974.82-1.109,2.018-1,.736.065,1.478.083,2.217.111,3.367.125,6.734.242,10.1.37.694.026,1.386.1,2.079.129a1.118,1.118,0,0,1,1,.619c.894,1.626,1.8,3.248,2.693,4.873.421.763.834,1.529,1.253,2.292a1.018,1.018,0,0,1-.049,1.16,1.142,1.142,0,0,1-1.811.014,5.213,5.213,0,0,1-.456-.728q-1.295-2.342-2.581-4.689C-1785.69,2015.86-1785.732,2015.8-1785.823,2015.66Zm-13.711-1.774c-.453-.124-.725.1-.963.519-1.06,1.862-2.155,3.707-3.235,5.559q-1.21,2.074-2.415,4.152c-.061.106-.181.218-.086.346.079.108.22.062.338.058,1.419-.045,2.839-.1,4.258-.134q3.694-.1,7.387-.173a.744.744,0,0,0,.7-.372q2.815-4.547,5.645-9.087c.2-.319.089-.374-.245-.382-.846-.021-1.691-.057-2.536-.094C-1793.617,2014.151-1796.544,2014.019-1799.534,2013.886Zm4.678,12.567c-2.34.059-4.545.11-6.75.174-1.465.043-2.929.11-4.393.155-.281.008-.363.076-.224.318.177.31.345.625.518.937,1.216,2.183,2.438,4.363,3.641,6.552a.709.709,0,0,0,.735.419c.664-.018,1.33,0,1.995.024q4.961.15,9.92.307c.57.017.576,0,.309-.479-1.364-2.475-2.771-4.93-4.074-7.432C-1793.587,2026.64-1794.024,2026.2-1794.856,2026.453Z" transform="translate(1809.42 -1996.583)" fill="#fefeff" stroke="#fefeff" stroke-width="1"/>
    <path id="Path_30062" data-name="Path 30062" d="M-1584.9,1842c-.669.4-1.288.761-1.906,1.128-2.61,1.549-5.216,3.1-7.834,4.641a.848.848,0,0,0-.5.848c.03.955.013,1.911,0,2.867a1.016,1.016,0,0,1-1.071,1.11,1.021,1.021,0,0,1-1.058-1.09q-.025-1.5,0-2.994a.55.55,0,0,0-.392-.58q-4.839-2.169-9.666-4.361c-.394-.178-.792-.35-1.185-.529-.228-.1-.337-.057-.335.192,0,.492.008.984,0,1.476a1.11,1.11,0,0,1-1.058,1.158,1.051,1.051,0,0,1-1.119-1.089c-.015-1.207.026-2.416.074-3.623a1.064,1.064,0,0,1,.571-.824q3.922-2.471,7.845-4.941c1.564-.986,3.141-1.953,4.678-2.973a1.689,1.689,0,0,1,1.956-.1c1.764.979,3.551,1.923,5.334,2.873s3.571,1.891,5.356,2.837c.666.353,1.328.712,1.991,1.069a1.158,1.158,0,0,1,.613,1.14q-.01,6.009-.005,12.017c0,.337.02.676-.009,1.011a1.22,1.22,0,0,1-1.571,1.087.919.919,0,0,1-.627-.718,4,4,0,0,1-.079-.8q-.009-4.237,0-8.475C-1584.9,1843.595-1584.9,1842.833-1584.9,1842Zm-1.114-1.859c-.035-.154-.155-.171-.241-.217-.916-.489-1.836-.972-2.752-1.461q-3.714-1.986-7.424-3.979a.564.564,0,0,0-.66.022c-.465.313-.943.609-1.418.909q-4.313,2.723-8.63,5.44c-.318.2-.339.3.026.461.769.328,1.528.676,2.29,1.019q4.122,1.856,8.239,3.721a.607.607,0,0,0,.7-.049,5.491,5.491,0,0,1,.5-.283q3.723-2.215,7.444-4.433C-1587.292,1840.9-1586.648,1840.516-1586.015,1840.137Z" transform="translate(1629.029 -1832.047)" fill="#fefeff" stroke="#fefeff" stroke-width="1"/>
  </g>
</svg>
