<svg xmlns="http://www.w3.org/2000/svg" width="19.792" height="19.792" viewBox="0 0 19.792 19.792">
  <g id="Group_19494" data-name="Group 19494" transform="translate(0)">
    <path id="Path_33228" data-name="Path 33228" d="M0,0H19.792V19.792H0Z" transform="translate(0)" fill="none"/>
    <path id="Path_33229" data-name="Path 33229" d="M9.6,6.123h1.649V14.37H9.6Zm3.3,3.3h1.649V14.37H12.9ZM6.3,11.071H7.948v3.3H6.3Zm6.6-7.422H4.649V16.844H16.195v-9.9H12.9ZM3,2.818A.821.821,0,0,1,3.824,2h9.9l4.123,4.123v11.54a.825.825,0,0,1-.819.83H3.819A.825.825,0,0,1,3,17.675Z" transform="translate(-0.526 -0.351)" fill="#5a5a5a"/>
  </g>
</svg>
